<svg width="28" height="28" viewBox="0 0 28 28" fill="none" xmlns="http://www.w3.org/2000/svg">
<g id="mdi:robot">
<path id="Vector" d="M13.9994 2.33301C14.6182 2.33301 15.2117 2.57884 15.6493 3.01643C16.0869 3.45401 16.3327 4.0475 16.3327 4.66634C16.3327 5.52967 15.866 6.28801 15.166 6.68467V8.16634H16.3327C18.4986 8.16634 20.5758 9.02676 22.1074 10.5583C23.6389 12.0899 24.4994 14.1671 24.4994 16.333H25.666C25.9754 16.333 26.2722 16.4559 26.491 16.6747C26.7098 16.8935 26.8327 17.1903 26.8327 17.4997V20.9997C26.8327 21.3091 26.7098 21.6058 26.491 21.8246C26.2722 22.0434 25.9754 22.1663 25.666 22.1663H24.4994V23.333C24.4994 23.9518 24.2535 24.5453 23.8159 24.9829C23.3783 25.4205 22.7849 25.6663 22.166 25.6663H5.83268C5.21384 25.6663 4.62035 25.4205 4.18277 24.9829C3.74518 24.5453 3.49935 23.9518 3.49935 23.333V22.1663H2.33268C2.02326 22.1663 1.72652 22.0434 1.50772 21.8246C1.28893 21.6058 1.16602 21.3091 1.16602 20.9997V17.4997C1.16602 17.1903 1.28893 16.8935 1.50772 16.6747C1.72652 16.4559 2.02326 16.333 2.33268 16.333H3.49935C3.49935 14.1671 4.35976 12.0899 5.89131 10.5583C7.42286 9.02676 9.50008 8.16634 11.666 8.16634H12.8327V6.68467C12.1327 6.28801 11.666 5.52967 11.666 4.66634C11.666 4.0475 11.9119 3.45401 12.3494 3.01643C12.787 2.57884 13.3805 2.33301 13.9994 2.33301ZM8.74935 15.1663C7.9758 15.1663 7.23394 15.4736 6.68695 16.0206C6.13997 16.5676 5.83268 17.3095 5.83268 18.083C5.83268 18.8566 6.13997 19.5984 6.68695 20.1454C7.23394 20.6924 7.9758 20.9997 8.74935 20.9997C9.5229 20.9997 10.2648 20.6924 10.8117 20.1454C11.3587 19.5984 11.666 18.8566 11.666 18.083C11.666 17.3095 11.3587 16.5676 10.8117 16.0206C10.2648 15.4736 9.5229 15.1663 8.74935 15.1663ZM19.2494 15.1663C18.4758 15.1663 17.7339 15.4736 17.187 16.0206C16.64 16.5676 16.3327 17.3095 16.3327 18.083C16.3327 18.8566 16.64 19.5984 17.187 20.1454C17.7339 20.6924 18.4758 20.9997 19.2494 20.9997C20.0229 20.9997 20.7648 20.6924 21.3117 20.1454C21.8587 19.5984 22.166 18.8566 22.166 18.083C22.166 17.3095 21.8587 16.5676 21.3117 16.0206C20.7648 15.4736 20.0229 15.1663 19.2494 15.1663Z" fill="#3B6993"/>
</g>
</svg>
